<?xml version="1.0" encoding="iso-8859-1"?>
<!-- Generator: Adobe Illustrator 19.0.0, SVG Export Plug-In . SVG Version: 6.00 Build 0)  -->
<svg xmlns="http://www.w3.org/2000/svg" xmlns:xlink="http://www.w3.org/1999/xlink" version="1.1" id="Layer_1" x="0px" y="0px" viewBox="0 0 512 512" style="enable-background:new 0 0 512 512;" xml:space="preserve" width="512px" height="512px">
<g>
	<g>
		<path d="M503.551,448.271h-11.494V247.192c0-4.666-3.782-8.449-8.449-8.449h-14.043c-3.776-14.901-17.301-25.959-33.359-25.959    s-29.584,11.058-33.359,25.959h-0.315c-3.776-14.901-17.297-25.959-33.356-25.959c-15.908,0-29.261,10.853-33.183,25.543    c0,0,0-38.352,0-49.233c0-34.317-22.028-63.573-52.68-74.411L265.253,68.29c-1.264-3.246-4.39-5.384-7.874-5.384    c-3.484,0-6.61,2.138-7.874,5.384l-17.968,46.16c-31.009,10.642-53.367,40.071-53.367,74.643c0,13.135,0,49.233,0,49.233    c-3.922-14.689-17.275-25.543-33.183-25.543c-16.059,0-29.58,11.058-33.356,25.959h-0.315    c-3.776-14.901-17.301-25.959-33.359-25.959S48.375,223.842,44.6,238.743H30.556c-4.667,0-8.449,3.783-8.449,8.449v201.079H8.449    c-4.667,0-8.449,3.783-8.449,8.449c0,4.666,3.782,8.449,8.449,8.449h495.102c4.667,0,8.449-3.783,8.449-8.449    C512,452.054,508.218,448.271,503.551,448.271z M369.174,229.682c6.594,0,12.347,3.664,15.333,9.061H353.84    C356.827,233.345,362.581,229.682,369.174,229.682z M318.519,180.644h-20.585c-0.9-17.799-4.634-33.493-10.38-45.53    C304.034,144.454,315.846,161.109,318.519,180.644z M319.031,197.542v41.201H303.27v-15.209c0-4.666-3.782-8.449-8.449-8.449    s-8.449,3.783-8.449,8.449v15.209h-20.903v-41.201H319.031z M257.378,94.648l6.159,15.82c-2.131-0.174-4.28-0.286-6.455-0.286    c-1.967,0-3.911,0.097-5.842,0.239L257.378,94.648z M257.081,127.081c9.328,0,22.053,20.168,23.926,53.563h-47.851    C235.028,147.25,247.753,127.081,257.081,127.081z M226.607,135.113c-5.745,12.037-9.479,27.732-10.38,45.53h-20.585    C198.316,161.109,210.128,144.454,226.607,135.113z M195.131,197.542h53.44v41.201H227.79v-15.209    c0-4.666-3.782-8.449-8.449-8.449c-4.667,0-8.449,3.783-8.449,8.449v15.209h-15.761V197.542z M144.988,229.682    c6.594,0,12.347,3.664,15.333,9.061h-30.666C132.641,233.345,138.395,229.682,144.988,229.682z M39.005,307.082h87.394v112.729    H90.542v-42.823c0-12.837-10.444-23.283-23.284-23.283c-12.838,0-23.283,10.444-23.283,23.283v42.823h-4.97V307.082z     M73.644,376.988v42.823h-12.77v-42.823c0-3.521,2.864-6.384,6.384-6.384S73.644,373.467,73.644,376.988z M91.135,448.271h-52.13    v-11.562h56.212L91.135,448.271z M109.057,448.271l4.083-11.562h284.512l4.083,11.562H109.057z M143.298,419.811V307.082h6.759    v112.729H143.298z M166.956,419.811V307.082h33.046v112.729H166.956z M216.9,419.811V307.082h6.759v112.729H216.9z     M225.387,290.184l31.694-14.12l31.694,14.12H225.387z M273.604,307.082v112.729h-33.047V307.082H273.604z M290.503,419.811    V307.082h6.759v112.729H290.503z M314.161,419.811V307.082h33.046v112.729H314.161z M364.105,419.811V307.082h6.759v112.729    H364.105z M475.157,448.271h-55.503l-4.083-11.562h59.585V448.271z M432.64,419.811v-42.823c0-3.521,2.864-6.384,6.384-6.384    s6.385,2.864,6.385,6.384v42.823H432.64z M475.157,419.811h-12.849v-42.823c0-12.838-10.444-23.283-23.284-23.283    c-12.838,0-23.283,10.444-23.283,23.283v42.823h-27.979V307.082h87.394V419.811z M475.157,290.184H330.299l-69.779-31.088    c-2.187-0.974-4.689-0.974-6.877,0l-69.779,31.088H39.005v-34.543h12.993c4.667,0,8.449-3.783,8.449-8.449    c0-9.655,7.856-17.51,17.51-17.51s17.51,7.856,17.51,17.51c0,4.666,3.782,8.449,8.449,8.449h306.329    c4.667,0,8.449-3.783,8.449-8.449c0-9.655,7.855-17.51,17.51-17.51c9.655,0,17.51,7.856,17.51,17.51    c0,4.666,3.782,8.449,8.449,8.449h12.993V290.184z" fill="#3151cc"/>
	</g>
</g>
<g>
	<g>
		<path d="M503.551,480.377H8.449c-4.667,0-8.449,3.783-8.449,8.449c0,4.666,3.782,8.449,8.449,8.449h495.102    c4.667,0,8.449-3.783,8.449-8.449C512,484.16,508.217,480.377,503.551,480.377z" fill="#3151cc"/>
	</g>
</g>
<g>
	<g>
		<path d="M122.05,14.724c-35.873,0-65.057,29.184-65.057,65.057s29.184,65.056,65.057,65.056c35.872,0,65.056-29.184,65.056-65.057    C187.105,43.907,157.922,14.724,122.05,14.724z M122.05,127.939c-26.554,0-48.158-21.604-48.158-48.16    c0-26.555,21.604-48.157,48.158-48.157s48.157,21.603,48.157,48.158S148.604,127.939,122.05,127.939z" fill="#3151cc"/>
	</g>
</g>
<g>
	<g>
		<path d="M474.819,101.779h-41.135c1.017-2.768,1.573-5.754,1.573-8.872c0-14.209-11.561-25.769-25.769-25.769h-59.711    c-14.208,0-25.769,11.56-25.769,25.769c0.001,14.209,11.562,25.77,25.77,25.77h0.874c-1.017,2.767-1.573,5.756-1.573,8.871    c0,14.209,11.561,25.769,25.77,25.769h99.97c14.209,0,25.77-11.56,25.77-25.769S489.028,101.779,474.819,101.779z     M474.819,136.419h-99.97c-4.892,0-8.872-3.979-8.872-8.871s3.98-8.871,8.872-8.871c4.667,0,8.449-3.783,8.449-8.449    c0-4.666-3.782-8.449-8.449-8.449h-25.072c-4.892,0-8.871-3.98-8.871-8.872s3.98-8.871,8.871-8.871h59.711    c4.892,0,8.871,3.979,8.871,8.871s-3.979,8.872-8.871,8.872c-4.667,0-8.449,3.783-8.449,8.449c0,4.666,3.782,8.449,8.449,8.449    h65.331c4.893,0,8.872,3.979,8.872,8.871S479.711,136.419,474.819,136.419z" fill="#3151cc"/>
	</g>
</g>
<g>
	<g>
		<circle cx="436.769" cy="245.411" r="8.449" fill="#3151cc"/>
	</g>
</g>
<g>
	<g>
		<circle cx="77.958" cy="245.411" r="8.449" fill="#3151cc"/>
	</g>
</g>
<g>
</g>
<g>
</g>
<g>
</g>
<g>
</g>
<g>
</g>
<g>
</g>
<g>
</g>
<g>
</g>
<g>
</g>
<g>
</g>
<g>
</g>
<g>
</g>
<g>
</g>
<g>
</g>
<g>
</g>
</svg>
