<?xml version="1.0" encoding="utf-8"?><svg xmlns="http://www.w3.org/2000/svg" xmlns:xlink="http://www.w3.org/1999/xlink"><symbol viewBox="0 0 35 25" id="icon_01" xmlns="http://www.w3.org/2000/svg"><path d="M22.3 12.5c3.5 0 6.4-2.8 6.4-6.3 0-3.4-2.9-6.2-6.4-6.2s-6.4 2.8-6.4 6.2c0 3.5 2.9 6.3 6.4 6.3zM8 9.4V4.7H4.8v4.7H0v3.1h4.8v4.7H8v-4.7h4.8V9.4H8zm14.3 6.2c-4.3 0-12.7 2-12.7 6.2V25H35v-3.1c0-4.2-8.4-6.3-12.7-6.3z"/></symbol><symbol viewBox="0 0 29 23" id="icon_02" xmlns="http://www.w3.org/2000/svg"><path d="M24.6 0L10.1 14.3 4.4 8.7 0 13.1 10.1 23 29 4.4 24.6 0z"/></symbol><symbol viewBox="0 0 36 36" id="icon_03" xmlns="http://www.w3.org/2000/svg"><path d="M35.9 16c-.1-.5-.6-.9-1.2-.9-1.6 0-3.1-1-3.7-2.5-.6-1.5-.2-3.3 1-4.5.4-.4.4-.9.1-1.4-.8-1.1-1.8-2-2.9-2.9-.4-.3-1-.3-1.4.1-1.1 1.2-3 1.6-4.5 1-1.5-.7-2.5-2.2-2.4-3.9 0-.5-.4-1-.9-1.1-1.3-.2-2.7-.2-4 0-.5.1-.9.5-.9 1 .1 1.7-.9 3.2-2.5 3.8-1.5.6-3.4.2-4.5-1-.2-.1-.8-.2-1.2.2-1.1.8-2.1 1.8-2.9 2.8-.3.4-.3 1 .1 1.4 1.3 1.1 1.7 2.9 1 4.5-.6 1.5-2.2 2.4-3.9 2.4-.6 0-1 .4-1 .9C0 17.3 0 18.6.1 20c.1.5.7.9 1.2.9 1.6 0 3.1.9 3.7 2.5.6 1.5.2 3.3-1 4.5-.4.4-.4.9-.1 1.4.8 1.1 1.8 2 2.8 2.9.4.3 1 .3 1.4-.1 1.1-1.2 3-1.6 4.5-1 1.6.6 2.5 2.2 2.4 3.9 0 .5.4 1 .9 1.1.7-.1 1.4-.1 2.1-.1.7 0 1.3 0 2-.1.5-.1.9-.5.9-1-.1-1.7.9-3.2 2.5-3.8 1.5-.6 3.4-.2 4.5 1 .4.4.9.4 1.4.1 1.1-.8 2.1-1.8 2.9-2.9.3-.4.3-1-.1-1.4-1.3-1.1-1.7-2.9-1-4.5.4-1.4 1.9-2.4 3.5-2.4h.2c.5 0 1-.4 1.1-.9.1-1.4.1-2.7 0-4.1zM18 28.4c-5.7 0-10.4-4.6-10.4-10.4S12.3 7.6 18 7.6 28.4 12.3 28.4 18c0 1.9-.5 3.8-1.5 5.3l-4.5-4.5c.3-.8.5-1.6.5-2.5 0-1.7-.7-3.3-1.9-4.5-1.2-1.2-2.8-1.9-4.5-1.9-.6 0-1.1.1-1.7.2-.2.1-.4.3-.5.5-.1.2 0 .5.2.7 0 0 2.2 2.3 3 3 .1.1.1.3.1.3-.1.8-.2 1.8-.3 2.2v.1c-.4.1-1.4.3-2.2.3-.1 0-.2 0-.3-.1l-2.9-2.9c-.2-.2-.4-.2-.5-.2-.3 0-.6.2-.7.5-.6 2.2 0 4.6 1.6 6.2 1.2 1.2 2.8 1.9 4.5 1.9.9 0 1.7-.2 2.5-.5l4.6 4.6c-1.9 1.1-3.8 1.7-5.9 1.7z"/></symbol><symbol id="icon_04" viewBox="0 0 40 26" xml:space="preserve" xmlns="http://www.w3.org/2000/svg"><style>.dst0{fill-rule:evenodd;clip-rule:evenodd}</style><path class="dst0" d="M40 1.3l-.3 2.5c-.1.8-.2 1.6-.4 2.4l-.1.5c-.4 2.3-.7 4.2-1.1 5.9-.4 1.9-.9 4-1.5 6.1-.4 1.2-.7 2.2-1.1 3.1-.2.6-.5 1.1-.7 1.6-.3.5-.6 1-1.1 1.6-.2.3-.5.5-.8.7-.2.2-.6.3-1.1.4-.4.1-.8 0-1.1-.1-.3-.1-.6-.3-.9-.5-.6-.5-1-1-1.3-1.4-.4-.5-.7-1.1-.9-1.5-.6-1.1-1-2.2-1.4-3-.4-1-.8-2.1-1.2-3l-.6-1.8c-.5-1.4-1-2.8-1.5-4.1-.4-1.1-.8-1.9-1.2-2.6 0-.1-.1-.2-.2-.3 0 0 0-.1-.1-.1 0 0 0-.1-.1-.1-.9-1.3-2-1.2-2.8.9-.2.4-.3.8-.5 1.3l-.5 1.2c-.4 1.1-.7 2.1-1.1 3-.5 1.2-.9 2-1.4 2.8-.5.7-1.1 1.7-2 2.4-.5.4-.9.6-1.4.8-.5.2-1 .2-1.6.1-.5-.1-.9-.3-1.4-.5-.4-.2-.8-.5-1.1-.9-.6-.6-1.2-1.3-1.7-2.2-.5-.7-.9-1.5-1.3-2.3-.8-1.7-1.5-3.4-1.9-4.6C1.5 6.5.7 3.7.2 1.6 0 1.4 0 1.3 0 1.3c0-.2 0-.3.1-.3C.2.9.3.9.4.9h.1c.1.1.2.1.2.3.8 2.1 1.6 4.5 3 7.4.7 1.5 1.4 2.9 2.2 4.2.4.7.9 1.4 1.3 2 .6.7 1 1.2 1.5 1.6.6.5 1.1.7 1.6.8.5 0 .9-.2 1.4-.6.5-.5 1-1.2 1.3-1.8.4-.7.7-1.5 1.1-2.4.3-.8.6-1.7.9-2.7l.5-1.5.6-1.5c.2-.7.4-1.3.6-1.7.2-.5.6-1 1-1.5.2-.3.5-.5.8-.7.3-.3.7-.4 1.1-.5.4-.1.8-.1 1.2 0 .3.1.7.3 1 .5.6.5 1 1 1.3 1.4.3.4.6.9.9 1.5.6 1.1 1 2.1 1.4 3 .1.1.1.3.2.4.6 1.4 1.1 2.8 1.6 4.2l.5 1.3c.7 1.8 1.4 3.8 2.3 5.5.2.5.5.8.6 1.1 1.1 1.7 1.8.2 2-.2.2-.3.4-.7.6-1.2.3-.8.7-1.6 1-2.7.6-1.7 1.1-3.7 1.6-5.7.5-1.9.9-3.8 1.3-5.7l.1-.4c.2-.8.4-1.6.5-2.4l.5-2.3V.4c.1-.1.4-.4.9-.4s.9.4.9.9v.4z"/></symbol><symbol viewBox="0 0 32 37" id="icon_05" xmlns="http://www.w3.org/2000/svg"><path d="M30.5 15.5h-.6v9.4h.6c.9 0 1.6-.7 1.6-1.6V17c-.1-.8-.8-1.5-1.6-1.5zM0 17.1v6.1c0 .9.7 1.7 1.6 1.7h.6v-9.4h-.6c-.9 0-1.6.7-1.6 1.6zm28.4-.3c0-.7-.1-1.4-.2-2.1 0-.2-.1-.5-.2-.7v-1.8C28.1 5.5 22.7 0 16 0S4 5.5 4 12.3v1.2c0 .1-.1.3-.1.5-.2.9-.4 1.9-.4 2.8v11.6c0 .5.4.8.8.8h2.5c.8 4.4 4.7 7.8 9.3 7.8 3.6 0 6.8-2.1 8.4-5.2 2.7-.2 4.9-2.5 4.9-5.3h-.9v-9.7zm-5.5 12.6H17c-.7 0-1.2.6-1.2 1.2 0 .7.5 1.2 1.2 1.2h4.6c-1.3 1.6-3.3 2.7-5.5 2.7-3.9 0-7-3.2-7-7.2v-7.9c.9-.6 2.5-1.7 3.6-3.2 1.7 1.4 5.1 3.5 10.5 3.7v7.3c-.1.8-.2 1.5-.3 2.2zM17.8 5.9h-3.6c-2.7 0-5.2 1-7 2.7C8.5 5 12 2.5 16 2.5c4.1 0 7.7 2.7 9 6.4-1.8-1.8-4.4-3-7.2-3zm-4.2 15.9h-1.9c-.7 0-1.2.6-1.2 1.2 0 .7.5 1.2 1.2 1.2h1.9c.7 0 1.2-.6 1.2-1.2s-.6-1.2-1.2-1.2zm6.8 0h-1.9c-.7 0-1.2.6-1.2 1.2 0 .7.5 1.2 1.2 1.2h1.9c.7 0 1.2-.6 1.2-1.2s-.6-1.2-1.2-1.2z"/></symbol><symbol viewBox="0 0 32 29" id="icon_06" xmlns="http://www.w3.org/2000/svg"><path d="M20.6 26.5h-3.4v-3h-2.4v3h-3.4c-.7 0-1.2.6-1.2 1.2 0 .7.5 1.2 1.2 1.2h9.2c.7 0 1.2-.6 1.2-1.2s-.5-1.2-1.2-1.2zM0 19.5V21c0 .5.4 1 1 1h30c.5 0 1-.4 1-1v-1.5H0zM16 4.2c2.6 0 5 .7 7.1 2l.8-1.1c.3-.4.8-.4 1.1-.2.4.3.4.8.2 1.1l-.8 1.1c3.2 2.5 5.2 6.3 5.3 10.7H32V1c0-.5-.4-1-1-1H1C.4 0 0 .4 0 1v16.9h2.3C2.4 10.3 8.5 4.2 16 4.2zm7 13.1c-.1-.1-.1-.2-.1-.3-.3-1.8-1.2-3.3-2.5-4.3L18 16c.4.3.7.8.9 1.3H23zm-7-2h.5l2.6-3.5c-.9-.5-2-.7-3.1-.7-2 0-3.8.8-5.1 2.2 0 .1-.1.1-.1.2-.8 1-1.4 2.2-1.6 3.5 0 .1-.1.2-.1.3h4.1c.3-1.2 1.5-2 2.8-2zm12.1 2c-.2-3.6-2-6.7-4.6-8.8l-2.1 2.9.2.2c1.5 1.3 2.6 3.2 2.9 5.2 0 .2 0 .4-.1.6h3.7zM6.2 10.9c-1.3 1.8-2.2 4-2.3 6.4h3.7c-.1-.2-.2-.4-.1-.6.2-1.3.8-2.6 1.6-3.7l-2.9-2.1zm4.2.6c1.4-1.2 3-1.9 4.8-2V5.9c-3.1.2-5.9 1.6-7.9 3.7l2.9 2.1.2-.2zm11.7-3.9c-1.6-.9-3.4-1.5-5.3-1.6v3.6c1.1.1 2.2.4 3.2 1l2.1-3z"/></symbol><symbol viewBox="0 0 37.5 36" id="icon_fixed" xmlns="http://www.w3.org/2000/svg"><path d="M8.4 10.3h10.4c.6 0 1.2-.5 1.2-1.2 0-.6-.5-1.2-1.2-1.2H8.4c-.7.1-1.2.6-1.2 1.3 0 .6.5 1.1 1.2 1.1zM8.4 15.1h20.8c.6 0 1.2-.5 1.2-1.2 0-.6-.5-1.2-1.2-1.2H8.4c-.6 0-1.2.5-1.2 1.2s.5 1.2 1.2 1.2zM30.4 18.8c0-.6-.5-1.2-1.2-1.2H8.4c-.6 0-1.2.5-1.2 1.2 0 .6.5 1.2 1.2 1.2h20.8c.6-.1 1.2-.6 1.2-1.2z"/><path d="M32.4 0L5.1.1C2.3.1 0 2.4 0 5.2v16.9c0 2.8 2.3 5.1 5.1 5.1h4.5v7.6c0 .5.3.9.8 1.1.1.1.3.1.4.1.3 0 .6-.1.9-.4l7.7-8.4 13.1-.1c2.8 0 5.1-2.3 5.1-5V5c-.1-2.7-2.4-5-5.2-5zM10.8 24.9H5.1c-1.5 0-2.8-1.2-2.8-2.8V5.2c0-1.5 1.2-2.8 2.8-2.8l27.3-.1c1.5 0 2.8 1.2 2.8 2.8V22c0 1.5-1.2 2.8-2.8 2.8l-13.7.1c-.3 0-.6.1-.9.4l-6 6.6V26c.1-.6-.4-1.1-1-1.1z"/></symbol><symbol viewBox="0 0 100 100" id="phone_icon" xmlns="http://www.w3.org/2000/svg"><path d="M49.8-155C-63.3-155-155-63.3-155 49.8c0 113.1 91.7 204.8 204.8 204.8 113.1 0 204.8-91.7 204.8-204.8C254.6-63.3 162.9-155 49.8-155zm108.1 298.8l-16.4 16.4c-2.9 2.9-11.5 4.8-11.8 4.8-51.9.4-101.8-19.9-138.5-56.6-36.8-36.8-57.2-87-56.6-139 0 0 1.9-8.4 4.8-11.3l16.4-16.4c6-6 17.5-8.7 25.6-6.1l3.5 1.2C-7-60.5 1.4-51.6 3.6-43.4l8.3 30.3c2.2 8.2-.8 19.9-6.8 25.9l-11 11c10.8 39.8 42 71 81.8 81.8l10.9-10.9c6-6 17.7-9 25.9-6.8l30.3 8.3c8.2 2.3 17.1 10.7 19.8 18.7l1.2 3.5c2.7 7.9-.1 19.5-6.1 25.4zm0 0"/></symbol></svg>